<svg width="250" height="25" viewBox="0 0 250 25" fill="none" xmlns="http://www.w3.org/2000/svg">
<path d="M0 3.15228L6.64811 12.2355L0 21.28L10.3973 17.2989L23.6163 12.2355L10.3973 7.13342L0 3.15228Z" fill="#1A94AA"/>
<path d="M122.372 24.0629H124.343V0.408005H122.372V24.0629ZM231.37 17.2216L223.91 4.31184H221.282V20.3137H223.214V6.70825L231.061 20.3137H233.302V4.31184H231.37V17.2216ZM214.595 20.3137H216.644V4.31184H214.595V20.3137ZM207.985 11.0373H200.332V4.31184H198.323V20.3137H200.332V12.9699H207.985V20.3137H209.995V4.31184H207.985V11.0373ZM243.313 12.0422V13.8975H248.261V14.0134C248.261 16.9123 246.715 18.729 243.932 18.729C241.149 18.729 241.613 18.3811 240.762 17.4921C239.371 16.1393 239.1 13.8975 239.1 12.3128C239.1 10.728 239.332 8.52489 240.724 7.17208C241.535 6.39904 242.579 5.89656 243.777 5.89656C244.975 5.89656 246.289 6.32174 247.024 7.09477C247.526 7.6359 247.797 8.40894 247.874 9.22062H250C250 7.98377 249.498 6.82421 248.725 5.97387C247.565 4.69836 245.98 4.00263 243.738 4.00263C241.497 4.00263 240.492 4.62106 239.293 5.78061C237.477 7.48129 236.936 9.8004 236.936 12.3514C236.936 14.9024 237.554 17.4148 239.216 18.9995C240.453 20.1591 242.115 20.6616 243.777 20.6616C245.439 20.6616 247.72 19.502 248.222 18.0719L248.454 20.3523H250V12.0809H243.236L243.313 12.0422ZM179.615 8.98871C179.615 6.08982 177.528 4.31184 174.281 4.31184H168.02V20.3137H170.029V13.6656H174.165L177.373 20.3137H179.615L176.175 13.3177C178.417 12.6606 179.576 10.9986 179.576 8.98871H179.615ZM170.029 11.7716V6.16713H174.281C176.175 6.16713 177.528 6.94016 177.528 8.98871C177.528 11.0373 176.175 11.7716 174.281 11.7716H170.029ZM153.409 20.3137H163.884V18.4584H155.419V12.9699H162.802V11.0759H155.419V6.16713H163.884V4.31184H153.409V20.3137ZM144.171 4.31184H138.374V20.3137H140.383V13.8202H144.171C147.457 13.8202 149.583 12.1195 149.583 9.06602C149.583 6.01252 147.457 4.31184 144.171 4.31184ZM144.133 12.0036H140.383V6.12848H144.133C146.259 6.12848 147.534 7.09477 147.534 9.06602C147.534 11.0373 146.297 12.0036 144.133 12.0036ZM190.399 11.3851L187.732 10.9986C186.534 10.8053 185.336 10.1869 185.336 8.6795C185.336 7.17208 186.843 5.85791 188.814 5.85791C190.785 5.85791 192.293 7.05612 192.409 8.98871H194.496C194.419 5.97387 191.906 4.00263 188.814 4.00263C185.722 4.00263 183.21 6.01252 183.21 8.7568C183.21 11.5011 185.026 12.622 187.461 13.0085L189.974 13.395C191.829 13.7042 192.641 14.7092 192.641 15.946C192.641 17.7627 191.056 18.8063 188.853 18.8063C186.65 18.8063 184.717 17.4148 184.64 15.289H182.553C182.553 18.4971 185.22 20.6616 188.853 20.6616C192.486 20.6616 194.728 18.8449 194.728 15.9847C194.728 13.1245 192.95 11.8489 190.283 11.4238L190.399 11.3851ZM95.7019 7.32668L90.5999 0.408005H74.4434V13.6269L64.7032 0.408005H56.2771V24.0629H63.5436V11.0373L73.1293 24.0629H81.6713V0.485309L91.7594 14.2067V24.0629H99.5671V14.2067L109.733 0.408005H100.765L95.6633 7.32668H95.7019ZM48.3921 11.0373C50.1314 10.8053 52.6438 9.06602 52.6438 6.16713V5.81926C52.6438 3.22959 50.9818 0.369354 44.4109 0.369354H27.2882V24.0243H44.5269C51.9481 24.0243 53.842 20.507 53.842 17.3762V17.0283C53.842 13.3564 51.0591 11.3851 48.4307 11.0373H48.3921ZM34.5161 5.23948H42.5943C44.4883 5.23948 45.1067 6.16713 45.1067 7.28803C45.1067 8.40894 44.5269 9.29793 42.5943 9.29793H34.5161V5.23948ZM45.957 16.2553C45.957 17.4535 45.3386 18.5744 43.0581 18.5744H34.4774V14.1294H43.0581C45.3386 14.1294 45.957 15.0957 45.957 16.2553Z" fill="#00243D"/>
</svg>