<svg width="374" height="190" viewBox="0 0 374 190" fill="none" xmlns="http://www.w3.org/2000/svg">
<path d="M72.65 35.6172L76.4301 32.6473C69.0201 35.2273 59.91 39.9472 52.58 44.3372C46.12 48.3272 33.3001 57.3973 28.3101 61.5173C21.3401 67.2673 9.96006 79.0872 7.81006 81.8272C6.77006 83.1672 4.98002 89.4172 4.52002 91.0872C5.59002 92.4672 7.74002 94.3572 9.52002 95.3072C11.48 96.3272 27.8899 97.7272 34.3199 98.1872C41.1599 98.8072 55.86 100.677 60.21 102.027C63.69 103.137 67.93 105.447 70.86 107.867C73.47 110.067 75.88 115.247 75.99 118.117C76.05 120.927 74.1299 127.447 72.5699 130.277C69.3999 135.927 60.1499 146.527 54.6899 151.247C48.5799 156.497 36.29 164.727 30.55 167.527C26.34 169.557 19.2999 171.497 16.9399 171.287C14.4899 171.007 11.8699 168.137 10.4399 166.347" stroke="#0C8888" stroke-width="8" stroke-linecap="round" stroke-linejoin="round"/>
<path d="M106.76 32.4372C106.32 37.0872 104.95 52.0073 104.03 62.2673C102.73 77.6373 100.15 109.507 98.87 125.997C98.08 138.217 97.83 147.667 98.07 156.217C98.11 157.607 98.25 160.847 98.34 161.997C98.38 162.457 98.4401 162.857 98.5301 163.187" stroke="#0C8888" stroke-width="8" stroke-linecap="round" stroke-linejoin="round"/>
<path d="M80.15 100.407C81.93 96.7573 85.23 92.6972 87.71 90.8172C92.08 87.5672 104.25 82.6373 113.37 80.3973C117.01 79.4973 125.05 77.4872 127.95 76.4872C128.19 76.4072 133.9 74.0073 134.77 73.6373" stroke="#0C8888" stroke-width="8" stroke-linecap="round" stroke-linejoin="round"/>
<path d="M112.79 129.237C113.84 128.997 120.24 126.457 122.94 124.917C127.94 122.017 138.76 113.927 144.13 108.617C146.86 105.907 149.16 102.747 150.36 100.237C151.25 98.3172 152.2 93.3972 151.47 90.4872C151.01 88.7972 148.74 85.9072 147.41 85.5372C145.87 85.1872 142.96 86.0671 141.65 87.1871C139.07 89.5171 135.11 95.1772 133.33 98.4472C129.95 104.737 125.99 116.347 123.87 125.077C122.98 128.777 122.3 134.127 122.27 138.697C122.28 142.207 123.51 149.107 124.02 150.387C124.92 152.577 129.7 157.817 131.65 158.937C133.85 160.157 140.04 160.867 142.98 160.437C149.13 159.477 156.29 155.647 159.59 153.007C160.36 152.377 163.93 149.387 165 148.487" stroke="#0C8888" stroke-width="8" stroke-linecap="round" stroke-linejoin="round"/>
<path d="M207.5 39.4473C209.48 35.1873 210.5 31.5773 209.97 28.0973C209.49 25.3573 207.92 20.3973 206.36 17.1173C205.26 14.8273 201.42 7.58729 199.94 5.98729C199.37 5.39729 196.99 4.25724 196.12 4.05724C194.63 3.79724 192.31 4.43734 190.26 5.66734C187.12 7.62734 184.36 10.9973 182.47 14.2373C180.59 17.5473 178.38 23.3473 177.51 26.6673C175.68 33.9373 174.05 48.0073 173.52 55.9973C173.23 60.9373 173.16 78.8373 173.23 86.3673C173.79 103.697 176.78 133.327 178.6 149.717C179.85 159.387 181.33 168.707 182.57 180.087C182.83 182.487 182.74 183.587 182.27 185.067L178.58 182.547" stroke="#0C8888" stroke-width="8" stroke-linecap="round" stroke-linejoin="round"/>
<path d="M155.74 125.787C158.53 121.517 161.7 117.727 165.61 114.587C170.92 110.387 181.14 104.007 186.9 101.897C192.32 99.9573 199.98 99.3672 202.97 99.2172" stroke="#0C8888" stroke-width="8" stroke-linecap="round" stroke-linejoin="round"/>
<path d="M216.91 107.677C219.95 103.557 222.57 99.3172 222.6 96.1072C222.58 95.3072 221.23 94.2372 220.49 94.3672C218.18 94.8572 213.11 99.7771 211.35 102.067C209.03 105.127 205.67 110.607 203.85 114.347C202.14 117.897 199.6 125.337 198.88 128.567C198.32 131.207 197.7 137.967 198.05 140.947C198.25 142.557 198.81 144.297 199.57 145.767C200.2 146.867 202.36 148.177 204.28 148.647C205.93 149.017 211.53 147.097 214.01 145.007C216.48 142.857 220.2 137.297 221.65 134.087C222.83 131.377 224.3 125.627 224.73 122.787C224.89 121.637 225.14 118.797 225.16 117.727C225.16 116.267 224.93 112.977 224.67 110.727C223.8 103.897 223.57 102.697 223.24 101.577C223.32 105.857 226.19 127.117 227.13 131.687C227.61 134.047 229.63 142.167 231.13 144.177C232.06 145.357 235.02 146.347 236.53 146.037C237.34 145.847 243.02 143.017 243.24 142.877" stroke="#0C8888" stroke-width="8" stroke-linecap="round" stroke-linejoin="round"/>
<path d="M241.03 97.2172L239.85 93.7473C240.96 96.9073 244.43 117.647 244.52 118.737C244.77 122.007 245.38 142.987 245.61 151.677C245.81 157.167 245.92 157.617 246.42 158.127C247.61 157.027 248.87 153.587 249.62 150.427C253.05 135.497 257.56 115.727 260.24 107.747C262.2 102.107 264.68 96.4173 265.86 95.9073C266.22 95.7573 267.21 95.5073 268.81 95.1573C270.68 97.0473 272.36 100.047 273.5 103.917C275.39 110.717 276.21 119.447 276.91 131.157C277.16 134.747 277.77 143.037 278.6 145.767C279.28 147.907 283.54 151.017 284.47 151.087C285 151.117 286.2 150.977 288.09 150.657" stroke="#0C8888" stroke-width="8" stroke-linecap="round" stroke-linejoin="round"/>
<path d="M292.94 112.017C294.26 115.827 294.9 119.557 294.85 124.507C294.76 130.207 293.81 153.207 294.15 155.527C294.21 155.927 294.33 156.527 294.52 157.327L296.69 158.057C298.59 155.847 299.55 154.237 300.1 152.087C300.31 151.267 300.52 150.457 300.74 149.637" stroke="#0C8888" stroke-width="8" stroke-linecap="round" stroke-linejoin="round"/>
<path d="M298.24 73.2472C297.97 70.9672 297.64 68.9272 297.23 67.5172C296.65 65.6272 295.51 63.5872 294.2 62.1072C293.08 60.8872 291.2 59.6772 290.26 59.6072C289.39 59.5672 288.38 60.2073 288.15 60.6673" stroke="#0C8888" stroke-width="8" stroke-linecap="round" stroke-linejoin="round"/>
<path d="M310.74 129.997L307.02 130.497C308.66 129.087 323.58 119.337 327.78 115.087C330.12 112.677 333.74 106.497 334.2 104.737C334.58 103.157 334.2 101.017 333.37 100.457C332.25 99.7772 324.49 100.457 322.08 101.577C319.93 102.607 316.5 105.527 314.65 107.787C312.6 110.347 309.57 116.137 308.58 118.907C306.64 124.457 304.76 136.707 305.49 142.367C305.85 144.947 307.96 151.367 310.26 154.187C311.62 155.797 314.65 157.877 316.63 158.547C320.07 159.667 327.01 159.217 329.73 158.557C332.32 157.907 339.78 154.997 342.96 153.467C347.98 151.027 361.85 141.077 368.09 136.377" stroke="#0C8888" stroke-width="8" stroke-linecap="round" stroke-linejoin="round"/>
</svg>
