<svg width="680" height="3" viewBox="0 0 680 3" fill="none" xmlns="http://www.w3.org/2000/svg">
<path d="M157.1 0.996575C142.8 -0.503425 127.6 0.696575 113.4 0.996575C94 1.49658 74.9 0.996575 55.5 0.996575C55.6 1.09658 55.7 1.19658 55.8 1.39658C55.5 1.49658 55.2 1.49658 54.5 1.69658C73.7 3.79658 94.3 2.79658 114 1.99658C130.4 1.29658 146.9 2.69658 163.4 2.69658C199.9 2.69658 236.2 2.29658 272.9 2.29658L272.6 1.99658C272.9 1.89658 273.3 1.79658 273.6 1.69658C254.7 -0.903425 234.9 0.896575 216 0.996575C206 0.996575 196.1 0.696575 186.1 0.996575C176.6 1.29658 166.3 1.99658 157.1 0.996575ZM523.4 0.696575C518.6 2.59658 512.2 0.596575 507.2 0.796575C502.8 0.996575 498.3 0.896575 493.8 1.49658C514.7 2.69658 535.2 1.09658 556 1.69658C566.1 1.99658 575.8 2.09658 586.2 2.09658C594.9 2.19658 605.7 4.19658 614.1 1.49658C612.2 -0.303425 606.7 0.896575 604.3 0.896575C600.3 0.796575 596.3 0.796575 592.3 0.896575C581.8 1.19658 571.4 0.596575 561 0.896575C554.7 1.09658 548.3 1.29658 541.9 1.29658C536.7 1.39658 528.5 -1.20342 523.4 0.696575ZM52.4 0.996575C44.4 0.696575 36.6 0.896575 28.6 0.796575C24.3 0.696575 19.9 0.996575 15.6 0.996575C10.8 0.996575 4.6 -0.503425 0 1.19658C2.1 4.19658 11.5 1.89658 14.6 1.89658C19.4 1.89658 24.6 1.89658 29.5 1.99658C33.3 2.09658 37.1 1.99658 41 1.89658C45 1.79658 50.4 3.49658 54.2 1.59658C53.5 1.39658 52.9 1.09658 52.4 0.996575ZM333 1.59658C328.4 -0.803425 319.8 0.996575 314.9 1.19658C311 1.39658 306.1 -0.203425 302.3 1.29658C297 0.396575 291.3 0.996575 286 0.996575C283.1 0.996575 276.9 -0.503425 274.4 1.19658C274.6 3.19658 301.4 2.09658 304.1 2.19658C308.5 2.29658 313 2.39658 317.4 2.19658C319.6 2.09658 331.8 3.49658 333 1.59658ZM388.5 1.89658C390.9 3.39658 405.7 1.19658 405.7 0.996575C391.3 -0.603425 376.8 2.79658 362.5 1.29658C366.1 3.19658 372.6 1.99658 376.6 2.09658C379.8 2.19658 386 0.396575 388.5 1.89658ZM478.2 0.996575C472.9 1.29658 467.8 0.796575 462.5 0.996575C461.3 0.996575 454.5 0.296575 453.8 1.59658C457 2.99658 462 2.09658 465.4 1.99658C469.2 1.99658 475.8 3.39658 479.1 1.59658C478.9 1.19658 478.6 0.996575 478.2 0.996575ZM647 2.19658C652.6 -0.803425 661.4 2.39658 667.6 1.69658C660.2 -0.203425 651 0.796575 643.6 1.49658C644.9 2.09658 646.3 2.49658 647 2.19658ZM448.7 1.39658C446.2 2.59658 438.8 1.69658 436.2 1.69658C440.3 3.39658 448.6 2.99658 452.8 1.69658C451.8 0.696575 450 0.796575 448.7 1.39658ZM635.8 2.19658C638.3 1.49658 641.1 1.79658 643.7 1.69658C640.1 0.696575 634.3 0.196575 630.7 1.59658C632.3 2.29658 634.1 2.59658 635.8 2.19658ZM618.7 2.09658C619.8 1.09658 625.1 1.99658 626.5 2.19658L626.2 1.89658C626.5 1.79658 626.9 1.69658 627.2 1.59658C623 2.29658 619.1 0.896575 614.6 1.49658C615.8 2.49658 617.3 2.09658 618.7 2.09658ZM677.1 0.996575C674.8 0.996575 670.7 -0.00342476 668.9 1.69658H678C677.6 1.39658 677.4 1.19658 677.1 0.996575ZM485.3 1.39658C484.1 0.496575 483 1.09658 481.9 1.49658C483.1 2.99658 491.3 1.89658 493.3 1.59658C490.8 0.796575 487.9 1.09658 485.3 1.39658ZM345.8 1.39658C341.8 1.39658 337.8 0.696575 333.9 1.69658C335.8 1.79658 345.7 2.39658 345.8 1.39658ZM349.6 1.59658C352.2 2.39658 354.3 2.69658 356.5 1.69658C354.8 0.196575 351.6 1.29658 349.6 1.59658ZM425.8 1.89658C427.1 2.69658 428.2 2.19658 429.3 1.69658C427.9 0.396575 425.3 1.39658 423.8 1.89658C424.5 1.79658 425.3 1.59658 425.8 1.89658ZM360.6 0.996575C359.4 0.696575 358.4 0.896575 357.4 1.69658H362.3C361.5 1.39658 361.1 1.09658 360.6 0.996575ZM412.8 1.69658H418.6C418.6 1.39658 412.8 1.39658 412.8 1.69658ZM411.8 1.59658C410.8 0.496575 409.7 0.496575 408.5 1.59658C409.6 2.39658 410.7 2.39658 411.8 1.59658ZM434.8 1.49658H431.3C432.4 1.69658 433.6 1.89658 434.8 1.49658ZM680 1.39658C679.6 1.49658 679.2 1.49658 678.8 1.59658C678.8 1.89658 680 2.09658 680 1.39658ZM628.9 1.69658C629.6 2.09658 629.9 1.99658 629.8 1.49658C629.2 1.09658 628.9 1.19658 628.9 1.69658Z" fill="#0098B3"/>
</svg>
