<svg width="171" height="74" viewBox="0 0 171 74" fill="none" xmlns="http://www.w3.org/2000/svg">
<path d="M25.4454 4.72916C25.4454 22.8333 31.1049 40.635 31.3049 58.6582M31.3049 58.6582C31.3085 58.9825 31.3104 59.3069 31.3104 59.6313V62.4009C31.3104 61.1487 31.3462 59.8383 31.4335 58.5022M31.3049 58.6582C30.2947 59.9016 29.5411 61.2718 29.2739 62.8082C28.5184 67.1525 34.1829 66.7898 36.6051 65.2519C41.9486 61.8592 45.2548 50.696 41.8183 45.0505C39.9492 41.9798 36.9455 41.4864 35.0167 44.7654C32.7027 48.6991 31.7435 53.7622 31.4335 58.5022M31.3049 58.6582C31.3474 58.606 31.3902 58.554 31.4335 58.5022M31.4335 58.5022C33.4629 56.0766 36.4487 54.1359 38.6415 52.3816M51.1045 46.5167C50.2333 46.5516 49.517 46.8248 48.9426 47.2734M48.9426 47.2734C43.7082 51.3615 50.2474 70.0123 58.5985 55.5585C61.1551 51.1337 58.2206 45.5342 52.978 45.1727C51.499 45.0707 49.1963 45.4966 48.9459 47.2498C48.9447 47.2577 48.9436 47.2656 48.9426 47.2734ZM48.9426 47.2734C48.6103 49.7336 51.69 49.2878 53.3038 49.4492M64.3005 47.2498C64.3005 49.2964 66.2931 65.0846 69.5953 63.0526C73.5867 60.5963 75.2973 55.0194 75.2973 50.6711C75.2973 48.0407 76.9307 55.8035 78.5963 57.8393C80.4009 60.0449 82.0911 60.2501 84.0947 58.2466M87.0271 9.86096C87.4385 26.3169 87.668 43.8623 90.6927 60.1201C91.0786 62.1941 91.8331 64.7761 91.8331 66.881C91.8331 68.8193 91.0394 63.0861 90.6927 61.179M80.4291 47.2498C86.5205 43.1889 93.9571 39.6535 98.757 34.0538M117 16C119.517 24.8101 117.818 29.424 117.818 38.534V62.6453C117.818 50.1464 118.831 35.3068 121.117 22.9999C121.117 17.5944 122.149 15.5856 122.5 9.61684C124.579 3.50009 124.107 20.1925 124.579 28.2703C124.993 35.3616 125.384 44.1798 127.756 50.9562C129.312 55.4028 130.677 56.0849 130.973 50.7525C131.448 42.2002 132.387 34.3601 133.946 25.9081C134.851 21.0051 136.146 15.4533 136.146 10.4312V9.00571C136.146 13.118 136.23 17.202 136.553 21.3058C137.53 33.7313 139.73 46.0277 140.544 58.4502C140.835 62.8867 141.278 67.2401 141.278 71.6871M146.5 53.8479C145.933 53.159 146.497 52.2338 147.597 51.2168M147.597 51.2168C150.011 48.9856 155.007 46.3126 156.306 44.7247C158.295 42.2939 155.906 40.6997 154.066 38.8597C151.248 36.0409 148.389 44.41 147.597 51.2168ZM147.597 51.2168C147.229 54.3753 147.306 57.1975 148.039 58.4095C155.291 70.413 162.474 57.1789 169.136 53.8479M12 7C11.0191 26.2021 5.66851 45.1728 2.3376 64.0514C1.50311 68.7811 2.22476 73.6344 4.40141 66.0593M13 12.2769V2.50031C13 0.0270809 13.6957 7.40269 14.2604 9.8081C16.3421 18.6748 18.0395 27.6302 19.7869 36.5704C21.7031 46.3745 22.7107 57.3239 26.9616 66.4928C29.0798 71.0616 27.5312 68.5419 26.089 65.604M4 49C8.93721 42.0818 16.7487 40.2989 24 37" stroke-width="3" stroke-linecap="round"/>
</svg>
