<svg width="159" height="88" viewBox="0 0 159 88" fill="none" xmlns="http://www.w3.org/2000/svg">
<path d="M4.77987 9.89699C4.77987 31.7334 6.13027 53.6482 6.93849 75.4701C6.99537 77.0058 6.37697 80.297 7.14213 81.7423C7.9691 83.3043 9.14809 76.7791 9.17806 76.6132L9.17856 76.6105M3.86822 21.061C-4.5713 26.565 17.7692 5.18622 27.3279 2M4 47.061C9.57602 38.4271 16.1966 32.5318 25.2603 28M18.7091 45.8196C20.1075 43.1976 19.4546 48.7275 19.5236 49.6074C19.8233 53.4279 19.2685 64.0322 24.4111 65.4508C28.5128 66.5823 31.3002 58.0711 32.2038 52.5491M32.2038 52.5491C32.4918 50.7891 32.5885 49.3328 32.4753 48.5892C32.2391 47.0369 31.9051 42.5151 31.9051 46.7156C31.9051 48.6273 31.9994 50.5925 32.2038 52.5491ZM32.2038 52.5491C32.4391 54.8017 32.8203 57.0431 33.3714 59.1786C35.0705 65.7629 37.2209 66.804 41.4356 60.4819M42.1687 46.5527C41.1476 46.8445 43.1865 63.8661 43.7979 65.7766C44.379 67.5925 44.3657 61.4348 44.4088 60.767C44.72 55.9432 45.6779 50.7366 47.6264 46.3084C48.4265 44.49 50.7044 43.4887 52.5953 44.6792C55.9123 46.7677 56.4589 53.3283 56.7473 56.7887L56.7496 56.8163C56.9956 59.7681 54.8571 78.8525 59.7635 67.8131M96.4193 15.0288C97.6363 14.9781 99.2817 13.9447 97.5189 14.3364C93.8774 15.1456 89.9958 17.2223 86.7258 18.8573C82.3029 21.0687 71.7126 25.2273 70.5566 31.2388C69.4149 37.1757 79.4344 41.1041 83.1825 43.2537C88.7237 46.4318 96.2718 50.3564 98.6186 56.7349C101.182 63.7013 99.2026 70.7384 95.6861 77.0177C94.1569 79.7485 82.3467 92.9501 86.1556 82.4754M98 26.2039C99.6366 20.5694 101.535 36.5043 101.65 37.1763C103.476 47.8807 104.878 58.9472 104.989 69.9073C105.014 72.4481 104.989 74.991 104.989 77.5321V70.5582M97.8855 57.5495C102.756 53.8596 108.341 51.5472 113.281 48.019M113.281 53.1508C113.454 49.164 113.995 54.6487 114.014 55.7574C114.072 59.1282 114.243 64.7222 117.517 66.7541C121.377 69.1504 124.954 60.1924 125.011 57.7124C125.023 57.1948 125.086 56.4971 125.138 55.7341M125.138 55.7341C125.261 53.9088 125.318 51.7096 124.441 50.7071C123.152 49.2341 124.174 52.7319 125.138 55.7341ZM125.138 55.7341C125.498 56.8568 125.85 57.9102 126.07 58.6084C127.238 62.3199 129.31 68.1207 133.075 63.4144M138.94 28.958C138.94 24.5757 138.487 20.6133 135.111 17.391C126.847 9.50259 129.625 25.6323 130.591 29.3245C132.779 37.6918 136.849 45.8107 137.433 54.5763C137.509 55.7188 137.474 64.5694 137.474 59.7488M129.409 47.2859C131.157 42.9158 138.319 42.1541 142.605 42.1541M151.403 17.9612C151.071 16.966 147.419 6.8758 145.905 10.9152C143.821 16.4726 144.994 23.5063 145.538 29.2023C146.095 35.04 147.23 40.4006 149.122 45.9418C150.778 50.7912 152.869 56.1905 152.869 61.3779C152.869 64.5609 150.67 67.3749 150.67 62.6813M146.271 48.7521C150.026 48.7521 153.938 49.2839 157.268 47.2859" stroke-width="3" stroke-linecap="round"/>
</svg>
