<svg width="111" height="31" viewBox="0 0 111 31" fill="none" xmlns="http://www.w3.org/2000/svg">
<path d="M2.17505 25.1759C3.35973 24.2425 4.7196 23.5552 6.03846 22.8358C10.9175 20.1745 15.3992 17.0002 20.0461 13.961C26.8453 9.51402 33.8508 5.43967 41.6923 3.12132C41.9271 3.05189 53.9512 -0.195929 53.0838 2.79017C52.7922 3.79404 51.1371 5.6786 50.6112 6.25621C48.8726 8.16589 47.2715 9.52985 45.4674 11.4001C41.5706 15.4397 37.8695 20.15 36.9679 25.8603C36.835 26.7017 36.684 27.8474 37.1666 28.664C37.8044 29.7435 39.5198 28.5043 40.1248 28.1783C47.3949 24.2621 54.7406 20.6731 62.3339 17.4049C68.6887 14.6698 75.1205 12.0728 81.6841 9.87678C83.1865 9.37413 87.0208 7.45237 87.4793 10.2521C88.0771 13.9029 84.4685 15.9391 83.9911 19.2373C83.0727 25.5826 92.2063 23.5545 95.7139 22.9241C100.155 22.1259 104.577 20.989 108.872 19.6015C109.36 19.4437 109.385 19.345 109.269 19.8113" stroke="#4423a5" stroke-width="4" stroke-linecap="round" class="svg-elem-1"></path>
</svg>
