<svg width="158" height="82" viewBox="0 0 158 82" fill="none" xmlns="http://www.w3.org/2000/svg">
<path d="M3.5 7.5C3.5 7.5 3.00191 33.7382 2.38616 44.0693C2.24022 46.5177 0.969713 60.2928 4.0153 51.1561M3 12C4.5 12.5 5.47058 16.2592 5.59797 17.3828C6.45575 24.9487 5.09522 35.7229 10.7343 42.6633C13.4248 45.9746 14.259 37.9252 14.2727 37.2958C14.467 28.3653 17.275 19.9115 19.1807 11.1549C19.8057 8.28346 21.4636 -0.314779 21.4636 2.5915C21.4636 13.2762 21.1239 23.9924 21.5206 34.6735C21.7483 40.8025 23.2229 47.1055 24.3171 53.1934C24.5856 54.6873 25.5964 56.8053 27 55.6857M30.38 42.5961C30.3224 42.3987 30.2713 42.2205 30.2262 42.0604M30.2262 42.0604C29.7126 40.2365 29.9757 40.7673 30.2262 42.0604ZM30.2262 42.0604C30.2984 42.4328 30.3695 42.8684 30.4207 43.3292C30.8476 47.1718 31.301 52.5709 33.4753 55.7922C37.5865 61.8827 39.9548 48.8784 40.6221 44.0904M40.6221 44.0904C40.7205 43.3846 40.7819 42.8574 40.8065 42.5961C40.9446 41.1286 41.4174 38.4758 41.4174 36.9999C41.4174 35.529 40.7496 41.0045 40.6843 42.4739C40.6604 43.0124 40.6398 43.5512 40.6221 44.0904ZM40.6221 44.0904C40.4017 50.8255 40.6436 57.6137 40.6436 64.3452C40.6436 69.3506 40.9206 74.2426 41.4174 79.2112C41.8164 83.2007 43 75.4248 43 74.4999M58.2383 11.6017C58.2383 16.2943 58.5442 20.8982 58.9715 25.5716C59.8238 34.8938 58.468 49.098 65.7324 56.3624C71.4956 62.1256 69.2212 34.7306 69.2351 32.4954C69.2403 31.661 69.3783 24.8215 71.1086 28.9113C73.1029 33.6252 73.9863 38.8903 75.6702 43.7365C77.2405 48.2561 78.7672 53.7569 83.0013 56.5253C87.2381 59.2955 88.3313 55.8369 88.2961 52.2081C88.1782 40.0686 84.4102 27.9509 83.3272 15.7967C83.2141 14.5281 83.0278 4.06483 83.8974 6.67349M97.8265 40.3968C98.12 39.8098 99.4879 37.8327 99.1801 36.8566M99.1801 36.8566C99.1257 36.6841 99.019 36.5429 98.8447 36.4461C96.0666 34.9027 94.7585 44.0732 94.6123 45.0982L94.609 45.1213C94.1054 48.6466 93.8857 52.876 97.0934 55.3035C99.2737 56.9534 102.362 56.1623 104.099 54.326C107.472 50.7603 105.925 36.8127 99.6593 36.8127C99.4923 36.8127 99.3327 36.8278 99.1801 36.8566ZM99.1801 36.8566C97.0761 37.2537 96.3191 40.2522 96.3603 42.1074C96.438 45.6051 99.6593 45.1213 101.5 44.0001M111.023 38.9306C108.829 41.261 110.493 44.8364 112.044 47.9874M112.044 47.9874C112.635 49.188 113.209 50.327 113.548 51.3121C113.917 52.3867 114.746 58.2626 113.792 54.7333C113.304 52.9288 112.508 50.4523 112.044 47.9874ZM112.044 47.9874C111.595 45.6081 111.457 43.2395 112.204 41.4965C114.196 36.8473 119.455 34.8515 123.486 32.3325M124.952 8.87283C123.065 21.3738 125.371 35.6002 127.518 48.0538C127.549 48.2355 127.714 49.0756 127.9 50.0698M127.9 50.0698C128.22 51.785 128.6 53.9587 128.454 54.0001C127.68 54.2215 127.884 50.8312 127.884 50.4975C127.884 50.3553 127.89 50.2127 127.9 50.0698ZM127.9 50.0698C128.16 46.4486 131.608 42.6153 133.016 39.2971C133.882 37.2561 135.61 35.1088 136.909 33.0606M136.909 33.0606C137.244 32.5327 137.55 32.0113 137.806 31.5M136.909 33.0606C137.198 32.5315 137.501 32.0151 137.806 31.5M136.909 33.0606C136.565 33.6896 136.24 34.3365 135.949 35.0206C135.336 36.461 130.791 49.3439 132.69 49.8865C133.944 50.2447 135.725 49.9273 137.007 49.9273C141.469 49.9273 144.996 50.4997 148.982 52.6968C151.436 54.0497 153.5 57 156 57M137.806 31.5C138.696 29.7202 138.571 29.6043 139.614 28.3004C139.052 29.4244 138.423 30.4595 137.806 31.5Z" stroke-width="3" stroke-linecap="round"/>
</svg>
